<svg xmlns="http://www.w3.org/2000/svg" version="1.1" xmlns:xlink="http://www.w3.org/1999/xlink" xmlns:svgjs="http://svgjs.dev/svgjs" width="1500" height="1500" viewBox="0 0 1500 1500"><rect width="1500" height="1500" fill="#ffffff"></rect><g transform="matrix(0.6666666666666666,0,0,0.6666666666666666,249.39393939393938,438.5856950067477)"><svg viewBox="0 0 396 247" data-background-color="#ffffff" preserveAspectRatio="xMidYMid meet" height="935" width="1500" xmlns="http://www.w3.org/2000/svg" xmlns:xlink="http://www.w3.org/1999/xlink"><g id="tight-bounds" transform="matrix(1,0,0,1,0.2400000000000091,-0.09999999999999432)"><svg viewBox="0 0 395.52 247.2" height="247.2" width="395.52"><g><svg></svg></g><g><svg viewBox="0 0 395.52 247.2" height="247.2" width="395.52"><g transform="matrix(1,0,0,1,75.54432,98.80109917808218)"><svg viewBox="0 0 244.43135999999998 49.597801643835616" height="49.597801643835616" width="244.43135999999998"><g><svg viewBox="0 0 244.43135999999998 49.597801643835616" height="49.597801643835616" width="244.43135999999998"><g><svg viewBox="0 0 244.43135999999998 49.597801643835616" height="49.597801643835616" width="244.43135999999998"><g><svg viewBox="0 0 244.43135999999998 49.597801643835616" height="49.597801643835616" width="244.43135999999998"><g id="textblocktransform"><svg viewBox="0 0 244.43135999999998 49.597801643835616" height="49.597801643835616" width="244.43135999999998" id="textblock"><g><svg viewBox="0 0 244.43135999999998 49.597801643835616" height="49.597801643835616" width="244.43135999999998"><g transform="matrix(1,0,0,1,0,0)"><svg width="244.43135999999998" viewBox="3.4 -37.4 233.57999999999998 47.4" height="49.597801643835616" data-palette-color="#3b84d2"><path d="M22.75 0L22.75-17.5 22.75-28.55 22.35-28.55 15-10.6 7.65-28.55 7.25-28.55 7.25-17.5 7.25 0 3.4 0 3.4-34.9 8.8-34.9 14.95-19.5 15.25-19.5 21.4-34.9 26.6-34.9 26.6 0 22.75 0ZM46.6-31.5L46.6-31.5Q44.85-31.5 44.15-32.23 43.45-32.95 43.45-34.05L43.45-34.05 43.45-34.85Q43.45-35.95 44.15-36.68 44.85-37.4 46.6-37.4L46.6-37.4Q48.35-37.4 49.05-36.68 49.75-35.95 49.75-34.85L49.75-34.85 49.75-34.05Q49.75-32.95 49.05-32.23 48.35-31.5 46.6-31.5ZM35.3 0L35.3-3.4 44.6-3.4 44.6-22.4 35.3-22.4 35.3-25.8 48.6-25.8 48.6-3.4 57.3-3.4 57.3 0 35.3 0ZM68.9 0L64.9 0 64.9-25.8 68.9-25.8 68.9-21.6 69.09-21.6Q69.5-22.55 70.09-23.43 70.7-24.3 71.57-24.95 72.45-25.6 73.65-26 74.84-26.4 76.45-26.4L76.45-26.4Q80.5-26.4 82.95-23.83 85.4-21.25 85.4-16.55L85.4-16.55 85.4 0 81.4 0 81.4-15.85Q81.4-19.4 79.84-21.13 78.3-22.85 75.3-22.85L75.3-22.85Q74.09-22.85 72.95-22.55 71.8-22.25 70.9-21.65 70-21.05 69.45-20.1 68.9-19.15 68.9-17.9L68.9-17.9 68.9 0ZM111.24 0L111.24-4.2 111.04-4.2Q108.54 0.6 103.09 0.6L103.09 0.6Q98.34 0.6 95.67-2.95 92.99-6.5 92.99-12.9L92.99-12.9Q92.99-19.3 95.67-22.85 98.34-26.4 103.09-26.4L103.09-26.4Q108.54-26.4 111.04-21.6L111.04-21.6 111.24-21.6 111.24-37 115.24-37 115.24 0 111.24 0ZM104.64-2.95L104.64-2.95Q105.99-2.95 107.19-3.3 108.39-3.65 109.29-4.33 110.19-5 110.72-5.98 111.24-6.95 111.24-8.25L111.24-8.25 111.24-17.55Q111.24-18.85 110.72-19.83 110.19-20.8 109.29-21.48 108.39-22.15 107.19-22.5 105.99-22.85 104.64-22.85L104.64-22.85Q101.14-22.85 99.22-20.73 97.29-18.6 97.29-15.1L97.29-15.1 97.29-10.7Q97.29-7.2 99.22-5.08 101.14-2.95 104.64-2.95ZM134.89 0.6L134.89 0.6Q130.19 0.6 127.19-1.13 124.19-2.85 122.24-5.55L122.24-5.55 125.29-8.05Q127.34-5.5 129.62-4.25 131.89-3 135.04-3L135.04-3Q138.84-3 140.84-4.75 142.84-6.5 142.84-9.65L142.84-9.65Q142.84-12.2 141.39-13.63 139.94-15.05 136.34-15.65L136.34-15.65 132.44-16.3Q129.89-16.75 128.17-17.65 126.44-18.55 125.39-19.83 124.34-21.1 123.89-22.63 123.44-24.15 123.44-25.8L123.44-25.8Q123.44-30.6 126.59-33.05 129.74-35.5 135.09-35.5L135.09-35.5Q139.29-35.5 142.17-34.1 145.04-32.7 146.79-30.15L146.79-30.15 143.84-27.6Q142.39-29.5 140.34-30.7 138.29-31.9 135.04-31.9L135.04-31.9Q131.49-31.9 129.59-30.4 127.69-28.9 127.69-25.9L127.69-25.9Q127.69-23.55 129.12-22.08 130.54-20.6 134.24-19.95L134.24-19.95 137.99-19.3Q140.54-18.85 142.29-17.95 144.04-17.05 145.12-15.8 146.19-14.55 146.64-13 147.09-11.45 147.09-9.75L147.09-9.75Q147.09-4.9 143.92-2.15 140.74 0.6 134.89 0.6ZM155.44 0L151.49-25.8 155.04-25.8 157.99-3.5 158.44-3.5 162.84-25.8 167.24-25.8 171.64-3.5 172.09-3.5 175.04-25.8 178.49-25.8 174.54 0 169.34 0 165.24-21.6 164.84-21.6 160.64 0 155.44 0ZM207.49 0L204.74 0Q202.39 0 201.39-1.2 200.39-2.4 200.14-4.2L200.14-4.2 199.89-4.2Q199.04-1.95 197.16-0.68 195.29 0.6 192.14 0.6L192.14 0.6Q188.09 0.6 185.69-1.5 183.29-3.6 183.29-7.25L183.29-7.25Q183.29-10.85 185.91-12.8 188.54-14.75 194.39-14.75L194.39-14.75 199.89-14.75 199.89-17.3Q199.89-20.15 198.29-21.58 196.69-23 193.74-23L193.74-23Q191.14-23 189.49-21.98 187.84-20.95 186.84-19.2L186.84-19.2 184.14-21.2Q184.64-22.2 185.49-23.15 186.34-24.1 187.59-24.83 188.84-25.55 190.44-25.98 192.04-26.4 193.99-26.4L193.99-26.4Q198.54-26.4 201.21-24.1 203.89-21.8 203.89-17.7L203.89-17.7 203.89-3.5 207.49-3.5 207.49 0ZM192.84-2.75L192.84-2.75Q194.39-2.75 195.66-3.13 196.94-3.5 197.89-4.13 198.84-4.75 199.36-5.63 199.89-6.5 199.89-7.5L199.89-7.5 199.89-11.75 194.39-11.75Q190.79-11.75 189.14-10.75 187.49-9.75 187.49-7.85L187.49-7.85 187.49-6.8Q187.49-4.8 188.91-3.78 190.34-2.75 192.84-2.75ZM214.73 10L214.73-25.8 218.73-25.8 218.73-21.6 218.93-21.6Q221.43-26.4 226.88-26.4L226.88-26.4Q231.63-26.4 234.31-22.85 236.98-19.3 236.98-12.9L236.98-12.9Q236.98-6.5 234.31-2.95 231.63 0.6 226.88 0.6L226.88 0.6Q221.43 0.6 218.93-4.2L218.93-4.2 218.73-4.2 218.73 10 214.73 10ZM225.33-2.95L225.33-2.95Q228.83-2.95 230.76-5.08 232.68-7.2 232.68-10.7L232.68-10.7 232.68-15.1Q232.68-18.6 230.76-20.73 228.83-22.85 225.33-22.85L225.33-22.85Q223.98-22.85 222.78-22.5 221.58-22.15 220.68-21.48 219.78-20.8 219.26-19.83 218.73-18.85 218.73-17.55L218.73-17.55 218.73-8.25Q218.73-6.95 219.26-5.98 219.78-5 220.68-4.33 221.58-3.65 222.78-3.3 223.98-2.95 225.33-2.95Z" opacity="1" transform="matrix(1,0,0,1,0,0)" fill="#3b84d2" class="wordmark-text-0" data-fill-palette-color="primary" id="text-0"></path></svg></g></svg></g></svg></g></svg></g></svg></g></svg></g></svg></g><g><path d="M0 123.6c0-68.262 55.338-123.6 123.6-123.6 57.681 0 106.134 39.512 119.769 92.947l-2.31 0c-13.581-52.186-61.021-90.71-117.459-90.711-67.027 0-121.364 54.336-121.364 121.364 0 67.027 54.336 121.364 121.364 121.364 56.438 0 103.878-38.524 117.459-90.711h2.31c-13.635 53.435-62.088 92.947-119.769 92.947-68.262 0-123.6-55.338-123.6-123.6z" fill="#3b84d2" stroke="transparent" data-fill-palette-color="tertiary"></path></g></svg></g><defs></defs></svg><rect width="395.52" height="247.2" fill="none" stroke="none" visibility="hidden"></rect></g></svg></g></svg>